<svg xmlns="http://www.w3.org/2000/svg" xmlns:xlink="http://www.w3.org/1999/xlink" viewBox="0 0 612 792"><defs><style>.cls-1,.cls-12,.cls-13{stroke:#1d1d1b;}.cls-1,.cls-12,.cls-13,.cls-2{stroke-miterlimit:10;}.cls-1{stroke-width:0.5px;fill:url(#Dégradé_sans_nom_84);}.cls-13,.cls-2{fill:#1d1d1b;}.cls-12,.cls-13,.cls-2{stroke-width:2px;}.cls-2{stroke:url(#Dégradé_sans_nom_84-2);}.cls-3{fill:#fffad2;}.cls-4{fill:url(#Dégradé_sans_nom);}.cls-5{fill:url(#Dégradé_sans_nom-2);}.cls-6{fill:url(#Dégradé_sans_nom-3);}.cls-7{fill:url(#Dégradé_sans_nom-4);}.cls-8{fill:url(#Dégradé_sans_nom-5);}.cls-9{fill:url(#Dégradé_sans_nom-6);}.cls-10{fill:url(#Dégradé_sans_nom-7);}.cls-11{fill:url(#Dégradé_sans_nom-8);}.cls-12{fill:#fff;}</style><radialGradient id="Dégradé_sans_nom_84" cx="346.98" cy="233.51" r="174.06" gradientUnits="userSpaceOnUse"><stop offset="0" stop-color="#f18f34"/><stop offset="0.05" stop-color="#f29630"/><stop offset="0.21" stop-color="#fdc800"/><stop offset="0.36" stop-color="#fdc800"/><stop offset="0.5" stop-color="#fdc800"/><stop offset="0.67" stop-color="#fdc800"/><stop offset="0.81" stop-color="#fdc800"/><stop offset="0.87" stop-color="#fdcc04"/><stop offset="0.93" stop-color="#fed70f"/><stop offset="0.99" stop-color="#ffea21"/><stop offset="1" stop-color="#ffef26"/></radialGradient><radialGradient id="Dégradé_sans_nom_84-2" cx="280.78" cy="368.49" r="285.28" gradientTransform="translate(-0.31)" xlink:href="#Dégradé_sans_nom_84"/><linearGradient id="Dégradé_sans_nom" x1="75.75" y1="314.99" x2="138.15" y2="312.8" gradientUnits="userSpaceOnUse"><stop offset="0" stop-color="#fff"/><stop offset="1"/></linearGradient><linearGradient id="Dégradé_sans_nom-2" x1="84.24" y1="339.79" x2="156.84" y2="331.14" xlink:href="#Dégradé_sans_nom"/><linearGradient id="Dégradé_sans_nom-3" x1="90.23" y1="357.2" x2="165.58" y2="345.51" xlink:href="#Dégradé_sans_nom"/><linearGradient id="Dégradé_sans_nom-4" x1="98.34" y1="380.09" x2="181.21" y2="366.04" xlink:href="#Dégradé_sans_nom"/><linearGradient id="Dégradé_sans_nom-5" x1="138.89" y1="427.21" x2="223.25" y2="399.2" xlink:href="#Dégradé_sans_nom"/><linearGradient id="Dégradé_sans_nom-6" x1="120.05" y1="411.41" x2="198.18" y2="384.57" xlink:href="#Dégradé_sans_nom"/><linearGradient id="Dégradé_sans_nom-7" x1="169.63" y1="442.77" x2="238.54" y2="419.06" xlink:href="#Dégradé_sans_nom"/><linearGradient id="Dégradé_sans_nom-8" x1="197.49" y1="451.3" x2="246.16" y2="433.57" xlink:href="#Dégradé_sans_nom"/></defs><title>Plan de travail 1</title><g id="Soleil"><ellipse class="cls-1" cx="346.98" cy="233.51" rx="178.26" ry="169.77"/></g><g id="Tracés_corps" data-name="Tracés corps"><path class="cls-2" d="M379.67,170.14,491.46,24.47,420,140.59l-21.39,50.85s2.42,96.89-10.35,109.25c0,0,1.38,44.32-4.83,70.77,0,0-5.52,35.39-9.32,40.88,0,0-2.59,25.25-7.76,30.41,0,0-27.95,49.13-49.51,63.9,0,0-9.14,8.07-12.59,14.77s-7.42,44.32-6.21,50.33c0,0-10.18,13.06-24.67,21.3,0,0,12.42,51.53,6.21,72.15,0,0-6.21-1-26.91,9.28v-32l-5.18,1.37s2.42,11.68,0,13.4-14.15,6.18-23.46,2.4c0,0-4.14,19.58-26.57,10.31,0,0-21,36.76-37.61,41.92,0,0-17.6,4.81,10.7-35.39,0,0-21.74,23-24.84,18.55s29.67-48.79,31.4-73.52c0,0-32.78,46-33.47,37.79l2.76-12.71s-25.88,25.77-29,18.55S158.86,601,158.86,601s-31.4,17.87-31.05,10.65c0,0,15.87-20.27,15.18-23.36,0,0-40.71,14.43-41.4,6.53,0,0-10.7-.34,33.81-26.11,0,0,56.24-44,62.45-53.25s14.84-49.82,30-58.41c0,0-34.85,6.18-33.81-12.71,0,0-22.08,5.5-28.29-10.65,0,0-27.6,0-30.71-15.8,0,0-15.18-2.75-18.63-14.77,0,0-14.49-3.09-20-33,0,0-6.56,1-8.28-23.71,0,0-3.8-3.09-5.52-17.18,0,0-3.8-2.75-7.25-24.39,0,0-5.52-13.4-2.42-24,0,0,102.47,70.77,215.64,30.23C288.59,311,267.54,201.75,379.67,170.14Z"/></g><g id="Detailles_ailles" data-name="Detailles ailles"><g id="Detailles_dans_les_ailles" data-name="Detailles dans les ailles"><path class="cls-3" d="M76.2,304.76s40,16,62,18.17"/><path class="cls-4" d="M76.27,304.58s3.85,1.28,9.64,3.12l9.91,3c3.64,1.07,7.5,2.24,11.4,3.29,1.95.53,3.9,1,5.83,1.48s3.83.88,5.65,1.37,3.57.95,5.22,1.49c.82.27,1.63.48,2.41.7l2.25.69,3.94,1.19c1.17.39,2.2.69,3.05.93,1.7.51,2.68.87,2.68.87l0,.4s-1,.1-2.84.15l-1.5,0-1.76-.08c-.63,0-1.29-.09-2-.14s-1.45-.1-2.2-.22c-1.52-.2-3.19-.42-4.91-.76s-3.55-.71-5.39-1.22-3.73-1.1-5.62-1.8-3.83-1.31-5.74-2c-3.85-1.33-7.66-2.74-11.21-4.13s-6.84-2.74-9.64-3.92c-5.61-2.36-9.29-4.08-9.29-4.08Z"/><path class="cls-3" d="M83.73,329.55s48.05,11.83,74.08,11.71"/><path class="cls-5" d="M83.78,329.35l11.55,2.13,11.85,2c4.34.72,9,1.46,13.6,2.1,2.32.33,4.64.61,6.93.87s4.54.47,6.71.78,4.26.57,6.23.94c1,.18,2,.3,2.88.44l2.69.46,4.72.77c1.41.27,2.64.45,3.65.61,2,.33,3.21.59,3.21.59v.4s-1.17.21-3.25.45l-1.72.19c-.63,0-1.3.07-2,.1s-1.49,0-2.31.07-1.67.05-2.56,0c-1.78,0-3.71-.09-5.74-.24s-4.17-.34-6.36-.65-4.45-.71-6.72-1.21-4.59-.91-6.9-1.42c-4.62-.94-9.21-2-13.51-3s-8.29-2-11.7-2.91c-6.83-1.78-11.34-3.13-11.34-3.13Z"/><path class="cls-3" d="M89.48,346.88s50.32,9.83,77.37,8.63"/><path class="cls-6" d="M89.53,346.63l12.09,1.52,12.4,1.4c4.54.47,9.37,1,14.21,1.44,2.42.21,4.84.38,7.23.51s4.73.24,7,.45,4.43.42,6.5.71l3,.37,2.81.39c1.8.26,3.45.45,4.92.68s2.75.42,3.81.57c2.12.31,3.35.58,3.35.58l0,.5s-1.2.32-3.35.71l-1.78.32c-.65.09-1.35.16-2.1.25s-1.55.14-2.39.22-1.73.16-2.66.17c-1.85.05-3.86.15-6,.09s-4.34-.14-6.63-.36-4.65-.55-7-1l-7.22-1.2c-4.83-.77-9.65-1.62-14.15-2.5s-8.68-1.77-12.26-2.55c-7.16-1.57-11.89-2.79-11.89-2.79Z"/><path class="cls-3" d="M97.38,369.79s55.45,8.28,85.27,6.22"/><path class="cls-7" d="M97.41,369.54l13.33,1.15,13.67,1c5,.33,10.33.73,15.66,1,2.67.13,5.33.23,8,.29s5.2.09,7.69.23,4.89.27,7.17.51c1.14.12,2.24.18,3.32.26l3.1.3c2,.2,3.81.34,5.43.52s3,.33,4.2.45c2.34.25,3.7.48,3.7.48l0,.5s-1.32.35-3.65.81l-1.94.37c-.71.11-1.47.2-2.29.31s-1.69.19-2.62.3-1.89.22-2.9.25c-2,.12-4.22.25-6.54.27s-4.76,0-7.28-.14-5.12-.41-7.74-.76l-8-1c-5.34-.62-10.66-1.31-15.63-2.06s-9.61-1.5-13.57-2.18-7.26-1.26-9.56-1.72L97.34,370Z"/><path class="cls-3" d="M136.33,417.7s58.95-2,89.81-9.22"/><path class="cls-8" d="M136.32,417.5l14.08-1.16L164.81,415c5.27-.51,10.88-1.09,16.48-1.76,2.8-.33,5.59-.7,8.34-1.08s5.44-.8,8.06-1.11,5.14-.62,7.56-.82c1.21-.1,2.37-.25,3.5-.37l3.28-.3,10.18-1c2.46-.24,3.9-.3,3.9-.3l.09.39s-1.33.52-3.7,1.32l-2,.65c-.72.22-1.5.42-2.34.66s-1.73.45-2.68.7-1.94.51-3,.71c-2.08.45-4.35.93-6.75,1.34s-4.95.81-7.59,1.12-5.38.54-8.17.7l-8.44.54c-5.65.37-11.31.65-16.61.88s-10.25.36-14.49.45c-8.48.18-14.14.14-14.14.14Z"/><path class="cls-3" d="M117.61,402.57s54.73-2.38,83.33-9.42"/><path class="cls-9" d="M117.6,402.37l13.06-1.25L144,399.7c4.89-.53,10.09-1.14,15.28-1.82,2.6-.34,5.19-.71,7.73-1.1s5-.81,7.47-1.12,4.77-.63,7-.82c1.12-.1,2.2-.25,3.25-.37l3-.3,5.33-.54c1.6-.12,3-.28,4.12-.39,2.29-.22,3.63-.28,3.63-.28l.1.39s-1.22.51-3.41,1.29l-1.82.64c-.67.22-1.39.42-2.17.65s-1.6.45-2.48.69-1.79.5-2.76.71c-1.93.45-4,.92-6.26,1.34s-4.59.81-7,1.13-5,.55-7.58.71l-7.84.57c-5.25.39-10.5.69-15.42.95s-9.52.41-13.46.53c-7.88.23-13.13.23-13.13.23Z"/><path class="cls-3" d="M166.81,432.95s49.47,1.42,74.88-4.2"/><path class="cls-10" d="M166.81,432.8s4.7-.05,11.74-.23l12-.41c4.39-.18,9.08-.4,13.75-.71,2.34-.15,4.67-.34,7-.54l6.73-.6c2.19-.15,4.29-.35,6.3-.44,1,0,2-.14,2.91-.21l2.73-.17c1.75-.1,3.35-.26,4.77-.35s2.67-.19,3.69-.29c2-.18,3.24-.23,3.24-.23l.06.29s-1.11.39-3.1,1l-1.65.49c-.6.16-1.26.3-2,.47-1.41.3-3,.72-4.74,1s-3.64.64-5.66.89-4.14.51-6.35.67-4.49.28-6.81.29-4.67.13-7,.14c-4.71.09-9.41.09-13.82.05s-8.52-.14-12-.26c-7-.23-11.74-.54-11.74-.54Z"/><path class="cls-3" d="M195.15,443.11s35.71,2.43,53.72-1.51"/><path class="cls-11" d="M195.16,443s3.37,0,8.42,0l8.62-.09c3.15-.05,6.51-.13,9.86-.29,1.68-.07,3.35-.18,5-.3s3.26-.27,4.82-.35,3.07-.17,4.51-.17c.72,0,1.41,0,2.09-.08l2,0c1.26,0,2.4-.09,3.42-.11s1.92,0,2.65-.08c1.47-.06,2.34,0,2.34,0l.06.29s-.79.33-2.21.81l-1.18.39-1.41.37c-1,.23-2.15.56-3.41.76s-2.63.47-4.08.63-3,.33-4.57.4-3.23.09-4.9,0-3.36,0-5.05-.11c-3.38-.06-6.76-.22-9.92-.37s-6.11-.38-8.63-.58c-5-.41-8.4-.81-8.4-.81Z"/></g></g><g id="Oeil"><ellipse id="_Ellipse2_" data-name="&lt;Ellipse2&gt;" class="cls-12" cx="352.99" cy="204.12" rx="11.12" ry="7.77" transform="translate(-40.95 309.38) rotate(-45)"/><ellipse class="cls-13" cx="349.79" cy="204.33" rx="7.42" ry="5.18" transform="translate(-42.03 307.19) rotate(-45)"/></g></svg>