<?xml version="1.0" encoding="utf-8"?>
<!-- Generator: Adobe Illustrator 20.0.0, SVG Export Plug-In . SVG Version: 6.00 Build 0)  -->
<svg version="1.1" id="Calque_1" xmlns="http://www.w3.org/2000/svg" xmlns:xlink="http://www.w3.org/1999/xlink" x="0px" y="0px"
	 viewBox="0 0 612 792" style="enable-background:new 0 0 612 792;" xml:space="preserve">
<style type="text/css">
	.st0{fill:url(#SVGID_1_);stroke:#1D1D1B;stroke-width:0.5;stroke-miterlimit:10;}
	.st1{fill:#1D1D1B;}
	.st2{clip-path:url(#SVGID_3_);fill:#FFFFFF;}
	.st3{fill:#FFFAD2;}
	.st4{fill:url(#SVGID_4_);}
	.st5{fill:url(#SVGID_5_);}
	.st6{fill:url(#SVGID_6_);}
	.st7{fill:url(#SVGID_7_);}
	.st8{fill:url(#SVGID_8_);}
	.st9{fill:url(#SVGID_9_);}
	.st10{fill:url(#SVGID_10_);}
	.st11{fill:url(#SVGID_11_);}
	.st12{fill:#FFFFFF;}
	.st13{fill:#D9FFE9;}
	.st14{font-family:'PreloSlab-BlackItalic';}
	.st15{font-size:198px;}
	.st16{font-size:78.5494px;}
	.st17{letter-spacing:25.6;}
</style>
<title>Plan de travail 1</title>
<g id="Soleil">
	
		<radialGradient id="SVGID_1_" cx="347" cy="-208.5" r="174.1019" gradientTransform="matrix(1 0 0 1 0 442)" gradientUnits="userSpaceOnUse">
		<stop  offset="0" style="stop-color:#F18F34"/>
		<stop  offset="5.000000e-02" style="stop-color:#F29630"/>
		<stop  offset="0.21" style="stop-color:#FDC800"/>
		<stop  offset="0.36" style="stop-color:#FDC800"/>
		<stop  offset="0.5" style="stop-color:#FDC800"/>
		<stop  offset="0.67" style="stop-color:#FDC800"/>
		<stop  offset="0.81" style="stop-color:#FDC800"/>
		<stop  offset="0.87" style="stop-color:#FDCC04"/>
		<stop  offset="0.93" style="stop-color:#FED70F"/>
		<stop  offset="0.99" style="stop-color:#FFEA21"/>
		<stop  offset="1" style="stop-color:#FFEF26"/>
	</radialGradient>
	<ellipse class="st0" cx="347" cy="233.5" rx="178.3" ry="169.8"/>
</g>
<path class="st1" d="M379.7,170.1L491.5,24.5L420,140.6l-21.4,50.9c0,0,2.4,96.9-10.4,109.3c0,0,1.4,44.3-4.8,70.8
	c0,0-5.5,35.4-9.3,40.9c0,0-2.6,25.3-7.8,30.4c0,0-28,49.1-49.5,63.9c0,0-9.1,8.1-12.6,14.8s-7.4,44.3-6.2,50.3
	c0,0-10.2,13.1-24.7,21.3c0,0,12.4,51.5,6.2,72.2c0,0-6.2-1-26.9,9.3v-32l-5.2,1.4c0,0,2.4,11.7,0,13.4s-14.1,6.2-23.5,2.4
	c0,0-4.1,19.6-26.6,10.3c0,0-21,36.8-37.6,41.9c0,0-17.6,4.8,10.7-35.4c0,0-21.7,23-24.8,18.5s29.7-48.8,31.4-73.5
	c0,0-32.8,46-33.5,37.8l2.8-12.7c0,0-25.9,25.8-29,18.5s41.5-64.1,41.5-64.1s-31.4,17.9-31.1,10.7c0,0,15.9-20.3,15.2-23.4
	c0,0-40.7,14.4-41.4,6.5c0,0-10.7-0.3,33.8-26.1c0,0,56.2-44,62.4-53.3s14.8-49.8,30-58.4c0,0-34.8,6.2-33.8-12.7
	c0,0-22.1,5.5-28.3-10.6c0,0-27.6,0-30.7-15.8c0,0-15.2-2.8-18.6-14.8c0,0-14.5-3.1-20-33c0,0-6.6,1-8.3-23.7c0,0-3.8-3.1-5.5-17.2
	c0,0-3.8-2.8-7.3-24.4c0,0-5.5-13.4-2.4-24c0,0,102.5,70.8,215.6,30.2C288.6,311,267.5,201.8,379.7,170.1z"/>
<g>
	<defs>
		<path id="SVGID_2_" d="M158.3,713.1c-1.3,0-2.9-0.3-4-1.8c-2.6-3.8,0.6-12.7,9.5-26.7c-5.9,5.6-13.7,12.3-17.2,12
			c-0.8-0.1-1.4-0.4-1.8-1c-1.5-2.2,1.8-8.4,9.4-22.2c8-14.5,18.8-33.9,21.3-48.2c-2.7,3.7-7.5,10.3-12.5,16.7
			c-15.8,20.2-18.1,19.6-19.2,19.3c-0.4-0.1-1.2-0.5-1.3-1.8v-0.1l2.1-9.6c-5.9,5.7-20.4,18.8-26,17.7c-1-0.2-1.8-0.8-2.2-1.8
			c-2.9-6.7,27.2-46.5,38.6-61.3c-8.1,4.3-23.3,12-27.1,9.6c-0.8-0.5-1.2-1.3-1.1-2.3v-0.3l0.2-0.3c6.5-8.2,13-17.6,14.6-21.2
			c-7.5,2.6-33.7,11.2-39.6,7.4c-0.6-0.4-1-0.9-1.3-1.5c-0.5-0.2-1.1-0.6-1.2-1.3c-0.4-1.4-1.3-5.2,35.3-26.5
			c2-1.6,56.2-44.1,62.2-53c2-2.9,4.3-9.4,6.9-16.8c5.1-14.3,11.4-31.7,20.1-39.5c-6.8,0.7-20.5,1.3-27.2-4.6
			c-2.4-2.2-3.7-5-3.8-8.4c-4.8,0.9-22.1,2.9-28-10.9c-4.4-0.1-27.3-1.4-30.9-15.9c-3-0.7-15.1-4.1-18.6-14.8
			c-2.9-0.9-15-6.4-20-32.9c-0.5-0.1-1-0.4-1.7-0.9c-2.4-2-5.6-7.6-6.7-23.3c-1-1.1-4-5.4-5.5-17.2c-1.1-1.2-4.3-6.2-7.3-24.6
			c-0.6-1.4-5.5-14.1-2.4-24.6l0.4-1.3l1.1,0.8c0.3,0.2,26,17.8,65.2,30.2c36,11.4,90.9,20.7,148.8,0.2c-0.9-5.5-4.3-31.1,4-59.5
			c5.3-18.1,14.2-33.8,26.5-46.7c15.3-16,35.8-27.8,61.1-34.9L490.7,23.9l1.6,1.1l-71.4,116l-21.3,50.6c0.2,6.3,2.1,95.9-10.3,109.5
			c0.1,4.6,1,45.7-4.9,70.6c-0.2,1.4-5.5,34.8-9.3,41c-0.3,2.8-2.8,25.3-7.9,30.7c-1.8,3.2-28.5,49.5-49.7,64.1
			c-0.7,0.6-9.1,8.2-12.3,14.4c-3.2,6.3-7.3,43.6-6.1,49.7l0.1,0.5l-0.3,0.4c-0.1,0.1-10.2,12.9-24.3,21.2c1.5,6.6,11.9,52.4,6,71.9
			l-0.3,0.8l-0.9-0.1c0,0-6.4-0.7-26.3,9.2l-1.4,0.7v-32.3l-3,0.8c0.7,3.6,1.9,11.7-0.6,13.5c-2.3,1.6-13.6,6.2-23.4,2.9
			c-0.7,2.3-3,7.8-8.4,10.6c-4.9,2.6-11.1,2.4-18.4-0.4c-3.2,5.4-22.1,36.8-37.7,41.6C160.1,712.9,159.3,713.1,158.3,713.1z
			 M169.8,675.8l1.5,1.3c-17.4,24.7-16.6,31.3-15.4,33c1,1.5,3.6,0.9,3.6,0.8c16-5,36.8-41.1,37-41.5l0.4-0.8l0.8,0.3
			c7.1,2.9,12.9,3.2,17.5,0.8c6.1-3.2,7.7-10.3,7.7-10.4l0.3-1.2l1.1,0.4c9.1,3.7,20.4-0.8,22.5-2.3c1.1-0.8,0.7-7.2-0.4-12.4
			l-0.2-0.9l7.4-1.9v31.7c15.7-7.7,22.8-8.6,25.2-8.7c5.6-20.6-6.3-70.4-6.4-70.9l-0.2-0.7l0.7-0.4c12.9-7.3,22.4-18.6,24.1-20.7
			c-0.9-7.2,2.8-43.5,6.4-50.5c3.5-6.8,12.4-14.7,12.8-15.1l0.1-0.1c21.1-14.5,48.9-63.1,49.2-63.6l0.2-0.2c4-4,6.8-22.9,7.5-29.8
			v-0.3l0.1-0.2c3-4.3,7.6-30.7,9.2-40.5c6.1-26.1,4.8-70.1,4.8-70.6V300l0.3-0.3c12.3-11.9,10.1-107.5,10-108.5V191l21.5-51.2
			l61.3-99.6L380.3,171l-0.3,0.1c-45.6,12.9-74.8,39.9-86.5,80.3c-8.7,29.9-4.4,56.5-3.9,59.4v0.2v0.2l-0.1,0.6l-0.6,0.2
			c-58.7,21-114.5,11.7-150.9,0.1c-34.7-11-58.9-26.1-64.5-29.7c-2.2,9.9,2.7,21.9,2.7,22l0.1,0.2c3.3,20.4,6.8,23.7,6.9,23.8
			l0.3,0.3l0.1,0.4c1.6,13.3,5.1,16.5,5.2,16.5l0.3,0.3v0.4c1.6,22.3,7.1,22.8,7.2,22.8l0,0l1-0.1l0.1,1
			c5.3,28.8,19.1,32.2,19.2,32.2l0.6,0.1l0.2,0.6c3.2,11.3,17.7,14,17.8,14.1l0.7,0.1l0.1,0.7c2.9,14.8,29.5,15,29.7,15h0.7l0.2,0.6
			c5.8,15.2,26.9,10.1,27.1,10l1.3-0.3l-0.1,1.4c-0.2,3.4,0.8,6.1,3.1,8.1c8.2,7.3,29.3,3.6,29.5,3.6l5.7-1l-5.1,2.9
			c-9.9,5.6-17.2,26-22.5,40.9c-2.7,7.6-5.1,14.1-7.2,17.2c-6.2,9.3-60.4,51.7-62.7,53.5l-0.1,0.1c-32.4,18.8-34.4,23.5-34.4,24.2
			c0.1,0,0.1,0,0.2,0l0.9,0.1l0.1,0.9c0,0.2,0.1,0.5,0.5,0.8c4.3,2.8,26-3.4,39.6-8.2l1.1-0.4l0.2,1.1c0.7,3.2-10.2,17.5-15.1,23.9
			c0,0.1,0.1,0.2,0.2,0.2c2.7,1.7,18.8-6,29.4-12l4.4-2.5l-3.1,4c-17.1,21.8-43.4,58.3-41.3,63.1c0.2,0.4,0.4,0.6,0.8,0.6
			c4.3,0.8,18.6-11.5,26.6-19.5l2.4-2.4l-3.4,15.7c3.4-1,18.6-20,31.6-38.3l2.1-2.9l-0.2,3.5c-1,14.9-13.2,36.8-22.1,52.8
			c-4.8,8.7-10.3,18.5-9.5,20.1c0,0,0.1,0.1,0.3,0.1C150.4,694.9,162.8,683.2,169.8,675.8z"/>
	</defs>
	<use xlink:href="#SVGID_2_"  style="overflow:visible;fill:#FFFFFF;"/>
	<clipPath id="SVGID_3_">
		<use xlink:href="#SVGID_2_"  style="overflow:visible;"/>
	</clipPath>
	<rect x="71.3" y="40.2" class="st2" width="409.1" height="671.4"/>
	<path class="st2" d="M481.4,368.5v201.7h0.8c-51.6,51.6-122.9,83.5-201.7,83.5s-150.1-31.9-201.7-83.5c-3.2-3.2-6.4-6.5-9.4-9.9h1
		V176.7h-1c3.1-3.4,6.2-6.7,9.4-9.9c51.6-51.6,122.9-83.5,201.7-83.5s150.1,31.9,201.7,83.5h-0.8V368.5z"/>
	<path class="st2" d="M481.4,368.5v201.3h0.4c-51.5,51.5-122.7,83.4-201.3,83.4s-149.8-31.9-201.3-83.4c-3.2-3.2-6.4-6.5-9.4-9.9
		h0.5V177.1h-0.5c3.1-3.4,6.2-6.7,9.4-9.9c51.5-51.5,122.7-83.4,201.3-83.4s149.8,31.9,201.3,83.4h-0.4V368.5z"/>
	<path class="st2" d="M481.4,368.5v110.6v85.4h4.7c-1.6,1.6-3.2,3.3-4.8,4.9c-51.4,51.4-122.4,83.2-200.9,83.2S131,620.8,79.6,569.4
		c-3.2-3.2-6.3-6.5-9.4-9.9h0.1v-382h-0.1c3.1-3.4,6.2-6.7,9.4-9.9C131,116.2,202,84.4,280.5,84.4s149.5,31.8,200.9,83.2
		c1.6,1.6,3.2,3.2,4.8,4.9h-4.7V368.5z"/>
	<path class="st2" d="M481.4,368.5v110.4v85.3h4.3c-1.6,1.6-3.1,3.3-4.8,4.9c-51.3,51.3-122.2,83-200.5,83S131.3,620.3,80,569
		c-3.2-3.2-6.3-6.5-9.4-9.8c-1.5-1.7-3-3.4-4.5-5.1h4.2V183h-4.2c1.5-1.7,3-3.4,4.5-5.1c3.1-3.4,6.2-6.6,9.4-9.8
		c51.3-51.3,122.2-83,200.5-83s149.2,31.7,200.5,83c1.6,1.6,3.2,3.2,4.8,4.9h-4.3V368.5z"/>
	<path class="st2" d="M481.4,368.5v110.1v85.1h3.9c-1.6,1.6-3.1,3.3-4.7,4.9c-51.2,51.2-121.9,82.9-200.1,82.9
		s-148.9-31.7-200.1-82.9c-3.2-3.2-6.3-6.5-9.4-9.8c-1.5-1.7-3-3.4-4.5-5.1h3.8V183.3h-3.8c1.5-1.7,3-3.4,4.5-5.1
		c3-3.3,6.2-6.6,9.4-9.8c51.2-51.2,121.9-82.9,200.1-82.9s148.9,31.7,200.1,82.9c1.6,1.6,3.2,3.2,4.7,4.9h-3.9V368.5z"/>
	<path class="st2" d="M481.4,368.5v109.9v84.9h3.5c-1.6,1.6-3.1,3.3-4.7,4.8c-51.1,51.1-121.7,82.7-199.7,82.7
		s-148.6-31.6-199.7-82.7c-3.2-3.2-6.3-6.5-9.4-9.8c-1.5-1.7-3-3.4-4.5-5.1h3.4V183.7h-3.4c1.5-1.7,3-3.4,4.5-5.1
		c3-3.3,6.2-6.6,9.4-9.8c51.1-51.1,121.7-82.7,199.7-82.7s148.6,31.6,199.7,82.7c1.6,1.6,3.2,3.2,4.7,4.8h-3.5V368.5z"/>
	<path class="st2" d="M481.4,368.5v109.6v84.6h2.8c-1.6,1.6-3.1,3.2-4.7,4.8c-50.9,50.9-121.3,82.4-199,82.4s-148.1-31.5-199-82.4
		c-3.2-3.2-6.3-6.4-9.3-9.8c-1.5-1.7-3-3.4-4.5-5.1h2.7V184.3h-2.7c1.5-1.7,3-3.4,4.5-5.1c3-3.3,6.1-6.6,9.3-9.8
		c50.9-50.9,121.3-82.4,199-82.4s148.1,31.5,199,82.4c1.6,1.6,3.2,3.2,4.7,4.8h-2.8V368.5z"/>
	<path class="st2" d="M481.4,368.5v109.2v79.4h6.8c-3,3.3-6.1,6.6-9.3,9.7c-50.8,50.8-120.9,82.2-198.4,82.2s-147.6-31.4-198.4-82.2
		c-6.3-6.3-12.4-13-18.1-19.9h6.3V190H64c5.7-6.9,11.8-13.6,18.1-19.9c50.8-50.8,120.9-82.2,198.4-82.2s147.6,31.4,198.4,82.2
		c3.2,3.2,6.3,6.4,9.3,9.7h-6.8V368.5z"/>
	<path class="st2" d="M481.4,368.5v108.9v79.2h6.1c-3,3.3-6.1,6.5-9.3,9.7c-50.6,50.6-120.5,81.9-197.8,81.9s-147.2-31.3-197.8-81.9
		c-6.3-6.3-12.4-13-18.1-19.9h5.7V190.6h-5.7c5.7-6.9,11.7-13.5,18.1-19.9c50.6-50.6,120.5-81.9,197.8-81.9s147.2,31.3,197.8,81.9
		c3.2,3.2,6.3,6.4,9.3,9.7h-6.1V368.5z"/>
	<path class="st2" d="M481.4,368.5V477v78.9h5.4c-3,3.3-6.1,6.5-9.2,9.7c-50.4,50.4-120.1,81.7-197.1,81.7s-146.7-31.2-197.1-81.7
		c-6.3-6.3-12.3-12.9-18-19.8h5V191.2h-5c5.7-6.9,11.7-13.5,18-19.8c50.4-50.4,120.1-81.7,197.1-81.7s146.7,31.2,197.1,81.7
		c3.2,3.2,6.2,6.4,9.2,9.7h-5.4V368.5z"/>
	<path class="st2" d="M481.4,368.5v108.2v78.7h4.8c-3,3.3-6.1,6.5-9.2,9.7c-50.3,50.3-119.8,81.4-196.5,81.4S134.3,615.3,84,565
		c-6.3-6.3-12.3-12.9-17.9-19.7h4.3V191.7H66c5.7-6.9,11.6-13.4,17.9-19.7c50.3-50.3,119.8-81.4,196.5-81.4S426.7,121.7,477,172
		c3.1,3.1,6.2,6.4,9.2,9.7h-4.8V368.5z"/>
	<path class="st2" d="M481.4,368.5v107.8v78.4h4.1c-3,3.3-6,6.5-9.2,9.6c-50.1,50.1-119.4,81.1-195.9,81.1s-145.7-31-195.9-81.1
		c-6.3-6.3-12.2-12.8-17.9-19.7h3.6V192.3h-3.6c5.6-6.8,11.6-13.4,17.9-19.7c50.1-50.1,119.4-81.1,195.9-81.1s145.7,31,195.9,81.1
		c3.1,3.1,6.2,6.3,9.2,9.6h-4.1V368.5z"/>
	<path class="st2" d="M481.4,368.5V476v78.2h3.4c-3,3.3-6,6.5-9.1,9.6c-50,50-119,80.9-195.2,80.9s-145.3-30.9-195.2-80.9
		c-6.2-6.2-12.2-12.8-17.8-19.6h2.9V192.9h-2.9c5.6-6.8,11.6-13.4,17.8-19.6c50-50,119-80.9,195.2-80.9s145.3,30.9,195.2,80.9
		c3.1,3.1,6.2,6.3,9.1,9.6h-3.4V368.5z"/>
	<path class="st2" d="M481.4,368.5v107.1v77.9h2.8c-3,3.3-6,6.4-9.1,9.6c-49.8,49.8-118.6,80.6-194.6,80.6s-144.8-30.8-194.6-80.6
		c-6.2-6.2-12.2-12.7-17.8-19.5h2.2V193.5h-2.2c5.6-6.8,11.5-13.3,17.8-19.5c49.8-49.8,118.6-80.6,194.6-80.6s144.8,30.8,194.6,80.6
		c3.1,3.1,6.2,6.3,9.1,9.6h-2.8V368.5z"/>
	<path class="st2" d="M481.4,368.5v106.8v77.7h2.1c-3,3.2-6,6.4-9.1,9.5c-49.6,49.6-118.2,80.3-193.9,80.3s-144.3-30.7-193.9-80.3
		c-6.2-6.2-12.1-12.7-17.7-19.5h1.5V194h-1.5c5.6-6.8,11.5-13.3,17.7-19.5c49.6-49.6,118.2-80.3,193.9-80.3s144.3,30.7,193.9,80.3
		c3.1,3.1,6.1,6.3,9.1,9.5h-2.1V368.5z"/>
	<path class="st2" d="M481.4,368.5v106.4v77.4h1.4c-2.9,3.2-6,6.4-9.1,9.5c-49.5,49.5-117.8,80.1-193.3,80.1s-143.8-30.6-193.3-80.1
		c-6.2-6.2-12.1-12.7-17.6-19.4h0.8V194.6h-0.8c5.6-6.8,11.5-13.2,17.6-19.4c49.5-49.5,117.8-80.1,193.3-80.1s143.8,30.6,193.3,80.1
		c3.1,3.1,6.1,6.3,9.1,9.5h-1.4V368.5z"/>
	<path class="st2" d="M481.4,368.5v106.1v77.1h0.8c-2.9,3.2-5.9,6.4-9,9.5C423.8,610.5,355.7,641,280.5,641s-143.4-30.5-192.7-79.8
		c-6.2-6.2-12-12.6-17.6-19.3h0.1V195.2h-0.1c5.6-6.7,11.4-13.2,17.6-19.3C137.1,126.5,205.2,96,280.5,96s143.4,30.5,192.7,79.8
		c3.1,3.1,6.1,6.2,9,9.5h-0.8V368.5z"/>
	<path class="st2" d="M481.4,368.5v105.7v76.9h0.1c-2.9,3.2-5.9,6.4-9,9.4c-49.1,49.1-117,79.5-192,79.5s-142.9-30.4-192-79.5
		c-6.1-6.1-12-12.6-17.5-19.3c-1.4-1.7-2.7-3.4-4.1-5.1h3.5V200.8h-3.5c1.3-1.7,2.7-3.4,4.1-5.1c5.5-6.7,11.4-13.1,17.5-19.3
		c49.1-49.1,117-79.5,192-79.5s142.9,30.4,192,79.5c3.1,3.1,6.1,6.2,9,9.4h-0.1V368.5z"/>
	<path class="st2" d="M481.4,368.5v105.4v71.8h3.7c-1.4,1.6-2.9,3.3-4.3,4.9c-2.9,3.2-5.9,6.3-9,9.4c-49,49-116.7,79.3-191.4,79.3
		s-142.4-30.3-191.4-79.3c-6.1-6.1-12-12.5-17.5-19.2c-2.8-3.3-5.4-6.8-8-10.2h6.7V206.6h-6.7c2.6-3.5,5.3-6.9,8-10.2
		c5.5-6.7,11.3-13.1,17.5-19.2c49-49,116.7-79.3,191.4-79.3s142.4,30.3,191.4,79.3c3.1,3.1,6,6.2,9,9.4c1.5,1.6,2.9,3.2,4.3,4.9
		h-3.7V368.5z"/>
	<path class="st2" d="M481.4,368.5v105V545h3.1c-1.4,1.6-2.8,3.2-4.3,4.8c-2.9,3.2-5.9,6.3-8.9,9.4c-48.8,48.8-116.3,79-190.8,79
		s-141.9-30.2-190.8-79c-6.1-6.1-11.9-12.5-17.4-19.2c-2.7-3.3-5.4-6.7-8-10.2h6V207.1h-6c2.6-3.5,5.3-6.9,8-10.2
		c5.5-6.7,11.3-13.1,17.4-19.2c48.8-48.8,116.3-79,190.8-79s141.9,30.2,190.8,79c3.1,3.1,6,6.2,8.9,9.4c1.5,1.6,2.9,3.2,4.3,4.8
		h-3.1V368.5z"/>
	<path class="st2" d="M481.4,368.5v104.7v66.4h6.5c-5.5,6.6-11.3,13-17.4,19.1c-48.7,48.7-115.9,78.8-190.1,78.8
		S139,607.3,90.3,558.6c-6.1-6.1-11.9-12.5-17.4-19.1c-2.7-3.3-5.4-6.7-8-10.2h5.3V207.6H65c2.6-3.5,5.2-6.8,8-10.2
		c5.5-6.6,11.3-13,17.4-19.1c48.7-48.7,115.9-78.8,190.1-78.8s141.5,30.1,190.1,78.8c6.1,6.1,11.9,12.5,17.4,19.1h-6.5V368.5z"/>
	<path class="st2" d="M481.4,368.5v104.3V539h5.8c-5.5,6.6-11.2,13-17.3,19c-48.5,48.5-115.5,78.5-189.5,78.5s-141-30-189.5-78.5
		c-6.1-6.1-11.8-12.4-17.3-19c-2.7-3.3-5.4-6.7-8-10.1h4.6V208.2h-4.6c2.6-3.4,5.2-6.8,8-10.1c5.5-6.6,11.2-13,17.3-19
		c48.5-48.5,115.5-78.5,189.5-78.5s141,30,189.5,78.5c6.1,6.1,11.8,12.4,17.3,19h-5.8V368.5z"/>
	<path class="st2" d="M481.4,368.5v104v65.9h5.2c-5.4,6.6-11.2,12.9-17.2,19c-48.3,48.3-115.1,78.2-188.8,78.2
		s-140.5-29.9-188.8-78.2c-6-6-11.8-12.4-17.2-19c-2.7-3.3-5.4-6.7-7.9-10.1h3.8V208.7h-3.8c2.6-3.4,5.2-6.8,7.9-10.1
		c5.4-6.6,11.2-12.9,17.2-19c48.3-48.3,115.1-78.2,188.8-78.2s140.5,29.9,188.8,78.2c6,6,11.8,12.4,17.2,19h-5.2V368.5z"/>
	<path class="st2" d="M481.4,368.5v103.6v65.7h4.5c-5.4,6.6-11.2,12.9-17.2,18.9c-48.2,48.2-114.7,78-188.2,78s-140-29.8-188.2-78
		c-6-6-11.8-12.3-17.2-18.9c-2.7-3.3-5.3-6.6-7.9-10.1h3.1V209.2h-3.1c2.6-3.4,5.2-6.8,7.9-10.1c5.4-6.6,11.2-12.9,17.2-18.9
		c48.2-48.2,114.7-78,188.2-78s140,29.8,188.2,78c6,6,11.8,12.3,17.2,18.9h-4.5V368.5z"/>
	<path class="st2" d="M481.4,368.5v103.3v65.5h3.8c-5.4,6.6-11.1,12.8-17.1,18.8c-48,48-114.3,77.7-187.6,77.7
		s-139.6-29.7-187.6-77.7c-6-6-11.7-12.3-17.1-18.8c-2.7-3.3-5.3-6.6-7.9-10h2.4V209.8h-2.4c2.5-3.4,5.2-6.7,7.9-10
		c5.4-6.6,11.1-12.8,17.1-18.8c48-48,114.3-77.7,187.6-77.7S420,132.9,468,180.9c6,6,11.7,12.3,17.1,18.8h-3.8V368.5z"/>
	<path class="st2" d="M481.4,368.5v102.6v65.1h2.6c-5.4,6.5-11.1,12.8-17,18.7c-47.7,47.7-113.7,77.2-186.5,77.2S141.7,602.7,94,555
		c-6-6-11.6-12.2-17-18.7c-2.7-3.3-5.3-6.6-7.8-10h1.2V210.7h-1.2c2.5-3.4,5.1-6.7,7.8-10C82.3,194.2,88,188,94,182
		c47.7-47.7,113.7-77.2,186.5-77.2s138.8,29.5,186.5,77.2c6,6,11.6,12.2,17,18.7h-2.6V368.5z"/>
	<path class="st2" d="M481.4,368.5v102v64.7h1.4c-5.3,6.5-11,12.7-16.9,18.6c-47.4,47.4-113,76.8-185.4,76.8s-137.9-29.3-185.4-76.8
		c-5.9-5.9-11.6-12.1-16.9-18.6c-2.7-3.2-5.3-6.5-7.8-9.9c-1.3-1.7-2.5-3.4-3.7-5.1h3.6V216.7h-3.6c1.2-1.7,2.5-3.4,3.7-5.1
		c2.5-3.4,5.1-6.7,7.8-9.9c5.3-6.5,11-12.7,16.9-18.6c47.4-47.4,113-76.8,185.4-76.8s137.9,29.3,185.4,76.8
		c5.9,5.9,11.6,12.1,16.9,18.6h-1.4V368.5z"/>
	<path class="st2" d="M481.4,368.5v101.4v64.3h0.2c-5.3,6.4-10.9,12.6-16.8,18.5c-47.2,47.2-112.3,76.3-184.3,76.3
		s-137.1-29.2-184.3-76.3c-11.8-11.8-22.5-24.7-31.8-38.6h5.9V222.8h-5.9c9.4-13.9,20-26.8,31.8-38.6
		c47.2-47.2,112.3-76.3,184.3-76.3s137.1,29.2,184.3,76.3c5.9,5.9,11.5,12.1,16.8,18.5h-0.2V368.5z"/>
	<path class="st2" d="M481.4,368.5v100.8v54.2h6.7c-2.5,3.3-5.1,6.6-7.7,9.8c-5.3,6.4-10.9,12.5-16.7,18.4
		c-46.9,46.9-111.6,75.9-183.2,75.9s-136.3-29-183.2-75.9C85.6,540,75,527.1,65.7,513.3h4.6V223.7h-4.6
		c9.3-13.8,19.9-26.6,31.6-38.3c46.9-46.9,111.6-75.9,183.2-75.9s136.3,29,183.2,75.9c5.9,5.9,11.4,12,16.7,18.4
		c2.6,3.2,5.2,6.5,7.7,9.8h-6.7V368.5z"/>
	<path class="st2" d="M481.4,368.5v100.2v53.8h5.4c-2.5,3.3-5,6.5-7.6,9.7c-5.2,6.4-10.8,12.5-16.6,18.3
		c-46.6,46.6-111,75.4-182.1,75.4S145,597.2,98.4,550.6c-11.6-11.6-22.2-24.4-31.4-38.1h3.4V224.5h-3.4
		c9.3-13.7,19.8-26.5,31.4-38.1c46.6-46.6,111-75.4,182.1-75.4s135.5,28.8,182.1,75.4c5.8,5.8,11.4,11.9,16.6,18.3
		c2.6,3.2,5.2,6.4,7.6,9.7h-5.4V368.5z"/>
	<path class="st2" d="M481.4,368.5v99.6v53.5h4.2c-2.5,3.3-5,6.5-7.6,9.7c-5.2,6.3-10.7,12.4-16.5,18.2c-46.3,46.3-110.3,75-181,75
		s-134.7-28.6-181-75c-11.6-11.6-22.1-24.3-31.3-37.9h2.1V225.4h-2.1c9.2-13.6,19.7-26.3,31.3-37.9c46.3-46.3,110.3-75,181-75
		s134.7,28.6,181,75c5.8,5.8,11.3,11.9,16.5,18.2c2.6,3.2,5.1,6.4,7.6,9.7h-4.2V368.5z"/>
	<path class="st2" d="M481.4,368.5v99v53.2h2.9c-2.4,3.3-5,6.5-7.6,9.6c-5.2,6.3-10.7,12.3-16.4,18.1c-46,46-109.6,74.5-179.9,74.5
		s-133.8-28.5-179.9-74.5c-11.5-11.5-21.9-24.1-31.1-37.6h0.8V226.3h-0.8c9.1-13.5,19.6-26.1,31.1-37.6c46-46,109.6-74.5,179.9-74.5
		s133.8,28.5,179.9,74.5c5.8,5.8,11.2,11.8,16.4,18.1c2.6,3.1,5.1,6.3,7.6,9.6h-2.9V368.5z"/>
	<path class="st2" d="M481.4,368.5v98.4v52.9h1.7c-2.4,3.2-4.9,6.4-7.5,9.6c-5.2,6.2-10.6,12.2-16.3,18
		c-45.8,45.8-109,74.1-178.8,74.1s-133-28.3-178.8-74.1c-11.4-11.4-21.8-24-30.9-37.4c-2.3-3.4-4.5-6.8-6.6-10.3h6.1V237.4h-6.1
		c2.1-3.5,4.3-6.9,6.6-10.3c9.1-13.5,19.4-26,30.9-37.4c45.8-45.8,109-74.1,178.8-74.1s133,28.3,178.8,74.1
		c5.7,5.7,11.2,11.7,16.3,18c2.6,3.1,5.1,6.3,7.5,9.6h-1.7V368.5z"/>
	<path class="st2" d="M481.4,368.5v97.8v52.5h0.4c-2.4,3.2-4.9,6.4-7.5,9.5c-5.1,6.2-10.5,12.2-16.2,17.8
		c-45.5,45.5-108.3,73.6-177.7,73.6s-132.2-28.1-177.7-73.6c-11.4-11.4-21.7-23.8-30.7-37.2c-2.3-3.3-4.4-6.7-6.5-10.2h4.7V238.2
		h-4.7c2.1-3.5,4.3-6.9,6.5-10.2c9-13.4,19.3-25.8,30.7-37.2c45.5-45.5,108.3-73.6,177.7-73.6s132.2,28.1,177.7,73.6
		c5.7,5.7,11.1,11.6,16.2,17.8c2.6,3.1,5,6.3,7.5,9.5h-0.4V368.5z"/>
	<path class="st2" d="M481.4,368.5v97.2v42.4h6.1c-9,13.3-19.2,25.7-30.5,37c-45.2,45.2-107.6,73.1-176.6,73.1s-131.4-28-176.6-73.1
		c-11.3-11.3-21.5-23.7-30.5-37c-2.2-3.3-4.4-6.7-6.5-10.1h3.4V239h-3.4c2.1-3.4,4.3-6.8,6.5-10.1c9-13.3,19.2-25.7,30.5-37
		c45.2-45.2,107.6-73.1,176.6-73.1s131.4,28,176.6,73.1c11.3,11.3,21.5,23.7,30.5,37h-6.1V368.5z"/>
	<path class="st2" d="M481.4,368.5v96.6v42.2h4.8c-8.9,13.2-19.1,25.5-30.3,36.7C411,588.9,349,616.7,280.5,616.7
		S149.9,588.9,105,544c-11.2-11.2-21.4-23.5-30.3-36.7c-2.2-3.3-4.4-6.7-6.5-10.1h2.1V239.8h-2.1c2.1-3.4,4.2-6.8,6.5-10.1
		c8.9-13.2,19.1-25.5,30.3-36.7c44.9-44.9,106.9-72.7,175.5-72.7S411,148.1,455.9,193c11.2,11.2,21.4,23.5,30.3,36.7h-4.8V368.5z"/>
	<path class="st2" d="M481.4,368.5v94.9v41.4h1.3c-8.8,13-18.7,25.1-29.8,36.1c-44.1,44.1-105.1,71.4-172.4,71.4
		S152.2,585.1,108,540.9c-11-11-21-23.1-29.8-36.1c-4.4-6.5-8.5-13.2-12.2-20.1h4.3V252.3H66c3.8-6.9,7.8-13.6,12.2-20.1
		c8.8-13,18.7-25.1,29.8-36.1c44.1-44.1,105.1-71.4,172.4-71.4s128.3,27.3,172.4,71.4c11,11,21,23.1,29.8,36.1h-1.3V368.5z"/>
	<path class="st2" d="M481.4,368.5v93.3v31h4c-2,3.3-4.1,6.5-6.2,9.7c-8.6,12.7-18.4,24.6-29.3,35.5
		c-43.4,43.4-103.3,70.2-169.4,70.2S154.4,581.3,111,537.9c-10.8-10.8-20.6-22.7-29.3-35.5c-4.3-6.4-8.3-13-12-19.8h0.5V254.3h-0.5
		c3.7-6.8,7.7-13.4,12-19.8c8.6-12.7,18.4-24.6,29.3-35.5c43.4-43.4,103.3-70.2,169.4-70.2s126.1,26.8,169.4,70.2
		c10.8,10.8,20.6,22.7,29.3,35.5c2.2,3.2,4.2,6.4,6.2,9.7h-4V368.5z"/>
	<path class="st2" d="M481.4,368.5v91.6v20.6h6c-3.6,6.7-7.6,13.1-11.8,19.4c-8.5,12.5-18.1,24.2-28.7,34.8
		c-42.6,42.6-101.4,68.9-166.4,68.9s-123.8-26.3-166.4-68.9c-21.3-21.3-38.5-46.6-50.4-74.8h6.7V276.9h-6.7
		c11.9-28.2,29.1-53.5,50.4-74.8c42.6-42.6,101.4-68.9,166.4-68.9s123.8,26.3,166.4,68.9c10.6,10.6,20.3,22.3,28.7,34.8
		c4.2,6.3,8.2,12.7,11.8,19.4h-6V368.5z"/>
	<path class="st2" d="M481.4,368.5v89.9v20.2h2.2c-3.6,6.5-7.4,12.9-11.6,19c-8.3,12.3-17.8,23.7-28.2,34.2
		c-41.8,41.8-99.6,67.7-163.4,67.7s-121.6-25.9-163.4-67.7c-20.9-20.9-37.8-45.8-49.5-73.4h2.7V278.6h-2.7
		c11.7-27.6,28.6-52.5,49.5-73.4c41.8-41.8,99.6-67.7,163.4-67.7s121.6,25.9,163.4,67.7c10.5,10.5,19.9,21.9,28.2,34.2
		c4.2,6.1,8,12.5,11.6,19h-2.2V368.5z"/>
	<path class="st2" d="M481.4,368.5V411h5.9c-2.8,13.7-7,27-12.3,39.6c-10.7,25.3-26.1,48-45.2,67.1c-38.2,38.2-91,61.8-149.3,61.8
		c-116.6,0-211.1-94.5-211.1-211.1s94.5-211.1,211.1-211.1c58.3,0,111.1,23.6,149.3,61.8c19.1,19.1,34.6,41.8,45.2,67.1
		c5.3,12.6,9.5,25.9,12.3,39.6h-5.9V368.5z"/>
	<circle class="st2" cx="280.5" cy="368.5" r="191.1"/>
	<circle class="st2" cx="280.5" cy="368.5" r="166.9"/>
	<circle class="st2" cx="280.5" cy="368.5" r="142.6"/>
	<circle class="st2" cx="280.5" cy="368.5" r="122.7"/>
	<circle class="st2" cx="280.5" cy="368.5" r="102.7"/>
	<circle class="st2" cx="280.5" cy="368.5" r="81.3"/>
	<circle class="st2" cx="280.5" cy="368.5" r="59.9"/>
	<circle class="st2" cx="280.5" cy="368.5" r="59"/>
	<circle class="st2" cx="280.5" cy="368.5" r="58.1"/>
	<circle class="st2" cx="280.5" cy="368.5" r="57.2"/>
	<circle class="st2" cx="280.5" cy="368.5" r="56.2"/>
	<circle class="st2" cx="280.5" cy="368.5" r="55.3"/>
	<circle class="st2" cx="280.5" cy="368.5" r="54.4"/>
	<circle class="st2" cx="280.5" cy="368.5" r="53.5"/>
	<circle class="st2" cx="280.5" cy="368.5" r="52.6"/>
	<circle class="st2" cx="280.5" cy="368.5" r="51.7"/>
	<circle class="st2" cx="280.5" cy="368.5" r="50.8"/>
	<circle class="st2" cx="280.5" cy="368.5" r="49.9"/>
	<circle class="st2" cx="280.5" cy="368.5" r="48.9"/>
	<circle class="st2" cx="280.5" cy="368.5" r="48"/>
	<circle class="st2" cx="280.5" cy="368.5" r="47.1"/>
	<circle class="st2" cx="280.5" cy="368.5" r="46.2"/>
	<circle class="st2" cx="280.5" cy="368.5" r="45.3"/>
	<circle class="st2" cx="280.5" cy="368.5" r="44.4"/>
	<circle class="st2" cx="280.5" cy="368.5" r="43.5"/>
	<circle class="st2" cx="280.5" cy="368.5" r="42.6"/>
	<circle class="st2" cx="280.5" cy="368.5" r="41.6"/>
	<circle class="st2" cx="280.5" cy="368.5" r="40.7"/>
	<circle class="st2" cx="280.5" cy="368.5" r="39.8"/>
	<circle class="st2" cx="280.5" cy="368.5" r="38.9"/>
	<circle class="st2" cx="280.5" cy="368.5" r="38"/>
	<circle class="st2" cx="280.5" cy="368.5" r="37.1"/>
	<circle class="st2" cx="280.5" cy="368.5" r="36.2"/>
	<circle class="st2" cx="280.5" cy="368.5" r="35.3"/>
	<circle class="st2" cx="280.5" cy="368.5" r="34.3"/>
	<circle class="st2" cx="280.5" cy="368.5" r="33.4"/>
	<circle class="st2" cx="280.5" cy="368.5" r="32.5"/>
	<circle class="st2" cx="280.5" cy="368.5" r="31.6"/>
	<circle class="st2" cx="280.5" cy="368.5" r="30.7"/>
	<circle class="st2" cx="280.5" cy="368.5" r="29.8"/>
	<circle class="st2" cx="280.5" cy="368.5" r="28.9"/>
	<circle class="st2" cx="280.5" cy="368.5" r="28"/>
	<circle class="st2" cx="280.5" cy="368.5" r="27"/>
	<circle class="st2" cx="280.5" cy="368.5" r="26.1"/>
	<circle class="st2" cx="280.5" cy="368.5" r="25.2"/>
	<circle class="st2" cx="280.5" cy="368.5" r="24.3"/>
	<circle class="st2" cx="280.5" cy="368.5" r="23.4"/>
	<circle class="st2" cx="280.5" cy="368.5" r="22.5"/>
	<circle class="st2" cx="280.5" cy="368.5" r="21.6"/>
	<circle class="st2" cx="280.5" cy="368.5" r="20.7"/>
	<circle class="st2" cx="280.5" cy="368.5" r="19.7"/>
	<circle class="st2" cx="280.5" cy="368.5" r="18.8"/>
	<circle class="st2" cx="280.5" cy="368.5" r="17.9"/>
	<circle class="st2" cx="280.5" cy="368.5" r="17"/>
	<circle class="st2" cx="280.5" cy="368.5" r="16.1"/>
	<circle class="st2" cx="280.5" cy="368.5" r="15.2"/>
	<circle class="st2" cx="280.5" cy="368.5" r="14.3"/>
	<circle class="st2" cx="280.5" cy="368.5" r="12.2"/>
	<circle class="st2" cx="280.5" cy="368.5" r="10.2"/>
	<circle class="st2" cx="280.5" cy="368.5" r="8.1"/>
	<circle class="st2" cx="280.5" cy="368.5" r="6.1"/>
	<circle class="st2" cx="280.5" cy="368.5" r="4.1"/>
	<circle class="st2" cx="280.5" cy="368.5" r="2"/>
	<rect x="68.8" y="23.9" class="st2" width="423.5" height="689.2"/>
	<path class="st2" d="M493.3,368.5v111v75.6h2.8c-1.5,1.7-3,3.4-4.5,5.1c-3.1,3.4-6.2,6.7-9.4,9.9c-51.6,51.6-122.9,83.5-201.7,83.5
		s-150.1-31.9-201.7-83.5c-3.2-3.2-6.4-6.5-9.4-9.9c-1.5-1.7-3-3.4-4.5-5.1h3V181.8h-3c1.5-1.7,3-3.4,4.5-5.1
		c3.1-3.4,6.2-6.7,9.4-9.9c51.6-51.6,122.9-83.5,201.7-83.5s150.1,31.9,201.7,83.5c3.2,3.2,6.4,6.5,9.4,9.9c1.5,1.7,3,3.4,4.5,5.1
		h-2.8V368.5z"/>
	<path class="st2" d="M493.3,368.5v110.8v70.3h6.8c-5.8,7-11.9,13.8-18.4,20.2c-51.5,51.5-122.7,83.4-201.3,83.4
		s-149.8-31.9-201.3-83.4c-6.4-6.4-12.6-13.2-18.4-20.2h7V187.4h-7c5.8-7,11.9-13.8,18.4-20.2c51.5-51.5,122.7-83.4,201.3-83.4
		s149.8,31.9,201.3,83.4c6.4,6.4,12.6,13.2,18.4,20.2h-6.8V368.5z"/>
	<path class="st2" d="M493.3,368.5v110.6v70.1h6.4c-5.8,7-11.9,13.7-18.3,20.2c-51.4,51.4-122.4,83.2-200.9,83.2
		S131,620.8,79.6,569.4c-6.4-6.4-12.5-13.2-18.3-20.2h6.6V187.8h-6.6c5.8-7,11.9-13.7,18.3-20.2C131,116.2,202,84.4,280.5,84.4
		s149.5,31.8,200.9,83.2c6.4,6.4,12.5,13.2,18.3,20.2h-6.4V368.5z"/>
	<path class="st2" d="M493.3,368.5v110.4v70h5.9c-5.8,7-11.9,13.7-18.3,20.1c-51.3,51.3-122.2,83-200.5,83S131.3,620.3,80,569
		c-6.4-6.4-12.5-13.1-18.3-20.1h6.1V188.2h-6.1c5.8-7,11.9-13.7,18.3-20.1c51.3-51.3,122.2-83,200.5-83s149.2,31.7,200.5,83
		c6.4,6.4,12.5,13.1,18.3,20.1h-5.9V368.5z"/>
	<path class="st2" d="M493.3,368.5v110.1v69.8h5.5c-5.8,7-11.9,13.7-18.3,20.1c-51.2,51.2-121.9,82.9-200.1,82.9
		s-148.9-31.7-200.1-82.9c-6.4-6.4-12.5-13.1-18.3-20.1h5.7v-360h-5.7c5.8-7,11.9-13.7,18.3-20.1c51.2-51.2,121.9-82.9,200.1-82.9
		s148.9,31.7,200.1,82.9c6.4,6.4,12.5,13.1,18.3,20.1h-5.5V368.5z"/>
	<path class="st2" d="M493.3,368.5v109.9v69.7h5.1c-5.8,7-11.8,13.7-18.2,20.1c-51.1,51.1-121.7,82.7-199.7,82.7
		s-148.6-31.6-199.7-82.7c-6.4-6.4-12.5-13.1-18.2-20.1h5.2V188.9h-5.2c5.8-7,11.8-13.7,18.2-20.1c51.1-51.1,121.7-82.7,199.7-82.7
		s148.6,31.6,199.7,82.7c6.4,6.4,12.5,13.1,18.2,20.1h-5.1V368.5z"/>
	<path class="st2" d="M493.3,368.5v109.6v69.5h4.4c-5.7,7-11.8,13.6-18.2,20c-50.9,50.9-121.3,82.4-199,82.4s-148.1-31.5-199-82.4
		c-6.4-6.4-12.4-13-18.2-20h4.5V189.4h-4.5c5.7-7,11.8-13.6,18.2-20c50.9-50.9,121.3-82.4,199-82.4s148.1,31.5,199,82.4
		c6.4,6.4,12.4,13,18.2,20h-4.4V368.5z"/>
	<path class="st2" d="M493.3,368.5v109.2V547h3.7c-5.7,6.9-11.8,13.6-18.1,19.9c-50.8,50.8-120.9,82.2-198.4,82.2
		s-147.6-31.4-198.4-82.2c-6.3-6.3-12.4-13-18.1-19.9h3.8V190H64c5.7-6.9,11.8-13.6,18.1-19.9c50.8-50.8,120.9-82.2,198.4-82.2
		s147.6,31.4,198.4,82.2c6.3,6.3,12.4,13,18.1,19.9h-3.7V368.5z"/>
	<path class="st2" d="M493.3,368.5v108.9v69h3c-5.7,6.9-11.7,13.5-18.1,19.9c-50.6,50.6-120.5,81.9-197.8,81.9
		s-147.2-31.3-197.8-81.9c-6.3-6.3-12.4-13-18.1-19.9h3.2V190.6h-3.2c5.7-6.9,11.7-13.5,18.1-19.9c50.6-50.6,120.5-81.9,197.8-81.9
		s147.2,31.3,197.8,81.9c6.3,6.3,12.4,13,18.1,19.9h-3V368.5z"/>
	<path class="st2" d="M493.3,368.5V477v68.8h2.3c-5.7,6.9-11.7,13.5-18,19.8c-50.4,50.4-120.1,81.7-197.1,81.7
		s-146.7-31.2-197.1-81.7c-6.3-6.3-12.3-12.9-18-19.8h2.5V191.2h-2.5c5.7-6.9,11.7-13.5,18-19.8c50.4-50.4,120.1-81.7,197.1-81.7
		s146.7,31.2,197.1,81.7c6.3,6.3,12.3,12.9,18,19.8h-2.3V368.5z"/>
	<path class="st2" d="M493.3,368.5v108.2v68.6h1.6c-5.7,6.9-11.6,13.4-17.9,19.7c-50.3,50.3-119.8,81.4-196.5,81.4
		S134.3,615.3,84,565c-6.3-6.3-12.3-12.9-17.9-19.7h1.8V191.7H66c5.7-6.9,11.6-13.4,17.9-19.7c50.3-50.3,119.8-81.4,196.5-81.4
		S426.7,121.7,477,172c6.3,6.3,12.3,12.9,17.9,19.7h-1.6V368.5z"/>
	<path class="st2" d="M493.3,368.5v107.8v68.4h0.9c-5.6,6.8-11.6,13.4-17.9,19.7c-50.1,50.1-119.4,81.1-195.9,81.1
		s-145.7-31-195.9-81.1c-6.3-6.3-12.2-12.8-17.9-19.7h1.1V192.3h-1.1c5.6-6.8,11.6-13.4,17.9-19.7c50.1-50.1,119.4-81.1,195.9-81.1
		s145.7,31,195.9,81.1c6.3,6.3,12.2,12.8,17.9,19.7h-0.9V368.5z"/>
	<path class="st2" d="M493.3,368.5V476v68.1h0.2c-5.6,6.8-11.6,13.4-17.8,19.6c-50,50-119,80.9-195.2,80.9s-145.3-30.9-195.2-80.9
		c-6.2-6.2-12.2-12.8-17.8-19.6h0.4V192.9h-0.4c5.6-6.8,11.6-13.4,17.8-19.6c50-50,119-80.9,195.2-80.9s145.3,30.9,195.2,80.9
		c6.2,6.2,12.2,12.8,17.8,19.6h-0.2V368.5z"/>
	<path class="st2" d="M493.3,368.5v107.1v62.8h3.7c-1.4,1.7-2.7,3.4-4.1,5.1c-5.6,6.8-11.5,13.3-17.8,19.5
		c-49.8,49.8-118.6,80.6-194.6,80.6s-144.8-30.8-194.6-80.6c-6.2-6.2-12.2-12.7-17.8-19.5c-1.4-1.7-2.8-3.4-4.1-5.1h3.8V198.6H64
		c1.4-1.7,2.7-3.4,4.1-5.1c5.6-6.8,11.5-13.3,17.8-19.5c49.8-49.8,118.6-80.6,194.6-80.6s144.8,30.8,194.6,80.6
		c6.2,6.2,12.2,12.7,17.8,19.5c1.4,1.7,2.8,3.4,4.1,5.1h-3.7V368.5z"/>
	<path class="st2" d="M493.3,368.5v106.8v57.3h7c-2.6,3.5-5.3,7-8.1,10.4c-5.6,6.8-11.5,13.3-17.7,19.5
		c-49.6,49.6-118.2,80.3-193.9,80.3s-144.3-30.7-193.9-80.3c-6.2-6.2-12.1-12.7-17.7-19.5c-1.4-1.7-2.8-3.4-4.1-5.1h3.1V199.2h-3.1
		c1.4-1.7,2.7-3.4,4.1-5.1c5.6-6.8,11.5-13.3,17.7-19.5c49.6-49.6,118.2-80.3,193.9-80.3s144.3,30.7,193.9,80.3
		c6.2,6.2,12.1,12.7,17.7,19.5c2.8,3.4,5.5,6.8,8.1,10.4h-7V368.5z"/>
	<path class="st2" d="M493.3,368.5v106.4v57.2h6.2c-2.6,3.5-5.3,7-8.1,10.3c-5.6,6.8-11.5,13.2-17.6,19.4
		c-49.5,49.5-117.8,80.1-193.3,80.1s-143.8-30.6-193.3-80.1c-6.2-6.2-12.1-12.7-17.6-19.4c-2.8-3.4-5.5-6.8-8.1-10.3h6.4V204.9h-6.4
		c2.6-3.5,5.3-7,8.1-10.3c5.6-6.8,11.5-13.2,17.6-19.4c49.5-49.5,117.8-80.1,193.3-80.1s143.8,30.6,193.3,80.1
		c6.2,6.2,12.1,12.7,17.6,19.4c2.8,3.4,5.5,6.8,8.1,10.3h-6.2V368.5z"/>
	<path class="st2" d="M493.3,368.5v106.1v57h5.5c-2.6,3.5-5.3,6.9-8.1,10.3c-5.6,6.7-11.4,13.2-17.6,19.3
		C423.8,610.5,355.7,641,280.5,641s-143.4-30.5-192.7-79.8c-6.2-6.2-12-12.6-17.6-19.3c-2.8-3.4-5.5-6.8-8.1-10.3h5.7V205.5h-5.7
		c2.6-3.5,5.3-6.9,8.1-10.3c5.6-6.7,11.4-13.2,17.6-19.3C137.1,126.5,205.2,96,280.5,96s143.4,30.5,192.7,79.8
		c6.2,6.2,12,12.6,17.6,19.3c2.8,3.4,5.5,6.8,8.1,10.3h-5.5V368.5z"/>
	<path class="st2" d="M493.3,368.5v105.7V531h4.8c-2.6,3.5-5.3,6.9-8.1,10.3c-5.5,6.7-11.4,13.1-17.5,19.3
		c-49.1,49.1-117,79.5-192,79.5s-142.9-30.4-192-79.5c-6.1-6.1-12-12.6-17.5-19.3c-2.8-3.4-5.5-6.8-8.1-10.3h5V206h-5
		c2.6-3.5,5.3-6.9,8.1-10.3c5.5-6.7,11.4-13.1,17.5-19.3c49.1-49.1,117-79.5,192-79.5s142.9,30.4,192,79.5
		c6.1,6.1,12,12.6,17.5,19.3c2.8,3.4,5.5,6.8,8.1,10.3h-4.8V368.5z"/>
	<path class="st2" d="M493.3,368.5v105.4v56.6h4.1c-2.6,3.5-5.3,6.9-8,10.2c-5.5,6.7-11.3,13.1-17.5,19.2
		c-49,49-116.7,79.3-191.4,79.3s-142.4-30.3-191.4-79.3c-6.1-6.1-12-12.5-17.5-19.2c-2.8-3.3-5.4-6.8-8-10.2h4.2V206.6h-4.2
		c2.6-3.5,5.3-6.9,8-10.2c5.5-6.7,11.3-13.1,17.5-19.2c49-49,116.7-79.3,191.4-79.3s142.4,30.3,191.4,79.3
		c6.1,6.1,12,12.5,17.5,19.2c2.8,3.3,5.4,6.8,8,10.2h-4.1V368.5z"/>
	<path class="st2" d="M493.3,368.5v105v56.4h3.3c-2.6,3.5-5.3,6.9-8,10.2c-5.5,6.7-11.3,13.1-17.4,19.2
		c-48.8,48.8-116.3,79-190.8,79s-141.9-30.2-190.8-79c-6.1-6.1-11.9-12.5-17.4-19.2c-2.7-3.3-5.4-6.7-8-10.2h3.5V207.1h-3.5
		c2.6-3.5,5.3-6.9,8-10.2c5.5-6.7,11.3-13.1,17.4-19.2c48.8-48.8,116.3-79,190.8-79s141.9,30.2,190.8,79
		c6.1,6.1,11.9,12.5,17.4,19.2c2.7,3.3,5.4,6.7,8,10.2h-3.3V368.5z"/>
	<path class="st2" d="M493.3,368.5v104.7v56.2h2.6c-2.6,3.5-5.2,6.8-8,10.2c-5.5,6.6-11.3,13-17.4,19.1
		c-48.7,48.7-115.9,78.8-190.1,78.8S139,607.3,90.3,558.6c-6.1-6.1-11.9-12.5-17.4-19.1c-2.7-3.3-5.4-6.7-8-10.2h2.8V207.6H65
		c2.6-3.5,5.2-6.8,8-10.2c5.5-6.6,11.3-13,17.4-19.1c48.7-48.7,115.9-78.8,190.1-78.8s141.5,30.1,190.1,78.8
		c6.1,6.1,11.9,12.5,17.4,19.1c2.7,3.3,5.4,6.7,8,10.2h-2.6V368.5z"/>
	<path class="st2" d="M493.3,368.5v104.3v56h1.9c-2.6,3.4-5.2,6.8-8,10.1c-5.5,6.6-11.2,13-17.3,19
		c-48.5,48.5-115.5,78.5-189.5,78.5s-141-30-189.5-78.5c-6.1-6.1-11.8-12.4-17.3-19c-2.7-3.3-5.4-6.7-8-10.1h2.1V208.2h-2.1
		c2.6-3.4,5.2-6.8,8-10.1c5.5-6.6,11.2-13,17.3-19c48.5-48.5,115.5-78.5,189.5-78.5s141,30,189.5,78.5c6.1,6.1,11.8,12.4,17.3,19
		c2.7,3.3,5.4,6.7,8,10.1h-1.9V368.5z"/>
	<path class="st2" d="M493.3,368.5v104v55.8h1.2c-2.6,3.4-5.2,6.8-7.9,10.1c-5.4,6.6-11.2,12.9-17.2,19
		c-48.3,48.3-115.1,78.2-188.8,78.2s-140.5-29.9-188.8-78.2c-6-6-11.8-12.4-17.2-19c-2.7-3.3-5.4-6.7-7.9-10.1h1.3V208.7h-1.3
		c2.6-3.4,5.2-6.8,7.9-10.1c5.4-6.6,11.2-12.9,17.2-19c48.3-48.3,115.1-78.2,188.8-78.2s140.5,29.9,188.8,78.2
		c6,6,11.8,12.4,17.2,19c2.7,3.3,5.4,6.7,7.9,10.1h-1.2V368.5z"/>
	<path class="st2" d="M493.3,368.5v103.6v55.6h0.5c-2.6,3.4-5.2,6.8-7.9,10.1c-5.4,6.6-11.2,12.9-17.2,18.9
		c-48.2,48.2-114.7,78-188.2,78s-140-29.8-188.2-78c-6-6-11.8-12.3-17.2-18.9c-2.7-3.3-5.3-6.6-7.9-10.1h0.6V209.2h-0.6
		c2.6-3.4,5.2-6.8,7.9-10.1c5.4-6.6,11.2-12.9,17.2-18.9c48.2-48.2,114.7-78,188.2-78s140,29.8,188.2,78c6,6,11.8,12.3,17.2,18.9
		c2.7,3.3,5.3,6.6,7.9,10.1h-0.5V368.5z"/>
	<path class="st2" d="M493.3,368.5v103.3v50.3h3.5c-1.2,1.7-2.5,3.5-3.8,5.2c-2.5,3.4-5.2,6.7-7.9,10c-5.4,6.6-11.1,12.8-17.1,18.8
		c-48,48-114.3,77.7-187.6,77.7s-139.6-29.7-187.6-77.7c-6-6-11.7-12.3-17.1-18.8c-2.7-3.3-5.3-6.6-7.9-10c-1.3-1.7-2.5-3.4-3.8-5.2
		h3.7V214.9h-3.7c1.2-1.7,2.5-3.5,3.8-5.2c2.5-3.4,5.2-6.7,7.9-10c5.4-6.6,11.1-12.8,17.1-18.8c48-48,114.3-77.7,187.6-77.7
		S420,132.9,468,180.9c6,6,11.7,12.3,17.1,18.8c2.7,3.3,5.3,6.6,7.9,10c1.3,1.7,2.5,3.4,3.8,5.2h-3.5V368.5z"/>
	<path class="st2" d="M493.3,368.5v102.6v44.8h5.8c-9.5,14-20.3,27.1-32.2,39c-47.7,47.7-113.7,77.2-186.5,77.2S141.7,602.7,94,555
		c-11.9-11.9-22.7-25-32.2-39h6V221.1h-6c9.5-14,20.3-27.1,32.2-39c47.7-47.7,113.7-77.2,186.5-77.2s138.8,29.5,186.5,77.2
		c11.9,11.9,22.7,25,32.2,39h-5.8V368.5z"/>
	<path class="st2" d="M493.3,368.5v102v44.5h4.6c-9.4,13.9-20.2,26.9-32,38.8c-47.4,47.4-113,76.8-185.4,76.8
		s-137.9-29.3-185.4-76.8c-11.9-11.9-22.6-24.9-32-38.8h4.7V221.9h-4.7c9.4-13.9,20.2-26.9,32-38.8c47.4-47.4,113-76.8,185.4-76.8
		s137.9,29.3,185.4,76.8c11.9,11.9,22.6,24.9,32,38.8h-4.6V368.5z"/>
	<path class="st2" d="M493.3,368.5v101.4v44.3h3.3c-9.4,13.9-20,26.8-31.8,38.6c-47.2,47.2-112.3,76.3-184.3,76.3
		s-137.1-29.2-184.3-76.3c-11.8-11.8-22.5-24.7-31.8-38.6h3.4V222.8h-3.4c9.4-13.9,20-26.8,31.8-38.6
		c47.2-47.2,112.3-76.3,184.3-76.3s137.1,29.2,184.3,76.3c11.8,11.8,22.5,24.7,31.8,38.6h-3.3V368.5z"/>
	<path class="st2" d="M493.3,368.5v100.8v44h2c-9.3,13.8-19.9,26.6-31.6,38.3c-46.9,46.9-111.6,75.9-183.2,75.9
		s-136.3-29-183.2-75.9C85.6,540,75,527.1,65.7,513.3h2.1V223.7h-2.1c9.3-13.8,19.9-26.6,31.6-38.3c46.9-46.9,111.6-75.9,183.2-75.9
		s136.3,29,183.2,75.9c11.7,11.7,22.3,24.6,31.6,38.3h-2V368.5z"/>
	<path class="st2" d="M493.3,368.5v100.2v43.7h0.7c-9.3,13.7-19.8,26.5-31.4,38.1c-46.6,46.6-111,75.4-182.1,75.4
		S145,597.2,98.4,550.6c-11.6-11.6-22.2-24.4-31.4-38.1h0.9V224.5h-0.9c9.3-13.7,19.8-26.5,31.4-38.1c46.6-46.6,111-75.4,182.1-75.4
		s135.5,28.8,182.1,75.4c11.6,11.6,22.2,24.4,31.4,38.1h-0.7V368.5z"/>
	<path class="st2" d="M493.3,368.5v99.6v33.1h6c-2.1,3.5-4.4,7-6.7,10.4c-9.2,13.6-19.7,26.3-31.3,37.9c-46.3,46.3-110.3,75-181,75
		s-134.7-28.6-181-75c-11.6-11.6-22.1-24.3-31.3-37.9c-2.3-3.4-4.5-6.9-6.7-10.4h6.2V235.8h-6.2c2.1-3.5,4.4-7,6.7-10.4
		c9.2-13.6,19.7-26.3,31.3-37.9c46.3-46.3,110.3-75,181-75s134.7,28.6,181,75c11.6,11.6,22.1,24.3,31.3,37.9
		c2.3,3.4,4.5,6.9,6.7,10.4h-6V368.5z"/>
	<path class="st2" d="M493.3,368.5v99v32.9h4.7c-2.1,3.5-4.3,6.9-6.6,10.3c-9.1,13.5-19.6,26.1-31.1,37.6
		c-46,46-109.6,74.5-179.9,74.5s-133.8-28.5-179.9-74.5c-11.5-11.5-21.9-24.1-31.1-37.6c-2.3-3.4-4.5-6.8-6.6-10.3h4.9V236.6h-4.9
		c2.1-3.5,4.3-6.9,6.6-10.3c9.1-13.5,19.6-26.1,31.1-37.6c46-46,109.6-74.5,179.9-74.5s133.8,28.5,179.9,74.5
		c11.5,11.5,21.9,24.1,31.1,37.6c2.3,3.4,4.5,6.8,6.6,10.3h-4.7V368.5z"/>
	<path class="st2" d="M493.3,368.5v98.4v32.7h3.4c-2.1,3.5-4.3,6.9-6.6,10.3c-9.1,13.5-19.4,26-30.9,37.4
		c-45.8,45.8-109,74.1-178.8,74.1s-133-28.3-178.8-74.1c-11.4-11.4-21.8-24-30.9-37.4c-2.3-3.4-4.5-6.8-6.6-10.3h3.6V237.4h-3.6
		c2.1-3.5,4.3-6.9,6.6-10.3c9.1-13.5,19.4-26,30.9-37.4c45.8-45.8,109-74.1,178.8-74.1s133,28.3,178.8,74.1
		c11.4,11.4,21.8,24,30.9,37.4c2.3,3.4,4.5,6.8,6.6,10.3h-3.4V368.5z"/>
	<path class="st2" d="M493.3,368.5v97.8v32.5h2.1c-2.1,3.5-4.3,6.9-6.5,10.2c-9,13.4-19.3,25.8-30.7,37.2
		c-45.5,45.5-108.3,73.6-177.7,73.6s-132.2-28.1-177.7-73.6c-11.4-11.4-21.7-23.8-30.7-37.2c-2.3-3.3-4.4-6.7-6.5-10.2h2.2V238.2
		h-2.2c2.1-3.5,4.3-6.9,6.5-10.2c9-13.4,19.3-25.8,30.7-37.2c45.5-45.5,108.3-73.6,177.7-73.6s132.2,28.1,177.7,73.6
		c11.4,11.4,21.7,23.8,30.7,37.2c2.3,3.3,4.4,6.7,6.5,10.2h-2.1V368.5z"/>
	<path class="st2" d="M493.3,368.5v97.2v21.8h6.7c-3.8,7.1-8,13.9-12.5,20.6c-9,13.3-19.2,25.7-30.5,37
		c-45.2,45.2-107.6,73.1-176.6,73.1s-131.4-28-176.6-73.1c-11.3-11.3-21.5-23.7-30.5-37c-4.5-6.6-8.7-13.5-12.5-20.6h6.9V249.5h-6.9
		c3.8-7.1,8-13.9,12.5-20.6c9-13.3,19.2-25.7,30.5-37c45.2-45.2,107.6-73.1,176.6-73.1s131.4,28,176.6,73.1
		c11.3,11.3,21.5,23.7,30.5,37c4.5,6.6,8.7,13.5,12.5,20.6h-6.7V368.5z"/>
	<path class="st2" d="M493.3,368.5v96.6v21.7h5.4c-3.8,7-8,13.9-12.4,20.5c-8.9,13.2-19.1,25.5-30.3,36.7
		C411,588.9,349,616.7,280.5,616.7S149.9,588.9,105,544c-11.2-11.2-21.4-23.5-30.3-36.7c-4.5-6.6-8.6-13.4-12.4-20.5h5.5V250.2h-5.5
		c3.8-7,8-13.9,12.4-20.5c8.9-13.2,19.1-25.5,30.3-36.7c44.9-44.9,106.9-72.7,175.5-72.7S411,148.1,455.9,193
		c11.2,11.2,21.4,23.5,30.3,36.7c4.5,6.6,8.6,13.4,12.4,20.5h-5.4V368.5z"/>
	<path class="st2" d="M493.3,368.5v94.9v21.3h1.6c-3.8,6.9-7.8,13.6-12.2,20.1c-8.8,13-18.7,25.1-29.8,36.1
		c-44.1,44.1-105.1,71.4-172.4,71.4S152.2,585.1,108,540.9c-11-11-21-23.1-29.8-36.1c-4.4-6.5-8.5-13.2-12.2-20.1h1.8V252.3H66
		c3.8-6.9,7.8-13.6,12.2-20.1c8.8-13,18.7-25.1,29.8-36.1c44.1-44.1,105.1-71.4,172.4-71.4s128.3,27.3,172.4,71.4
		c11,11,21,23.1,29.8,36.1c4.4,6.5,8.5,13.2,12.2,20.1h-1.6V368.5z"/>
	<path class="st2" d="M493.3,368.5v93.3v10.6h3.1c-1.7,3.5-3.4,6.9-5.3,10.3c-3.7,6.8-7.7,13.4-12,19.8
		c-8.6,12.7-18.4,24.6-29.3,35.5c-43.4,43.4-103.3,70.2-169.4,70.2S154.4,581.3,111,537.9c-10.8-10.8-20.6-22.7-29.3-35.5
		c-4.3-6.4-8.3-13-12-19.8c-1.8-3.4-3.6-6.8-5.3-10.3h3.3V264.6h-3.3c1.7-3.5,3.4-6.9,5.3-10.3c3.7-6.8,7.7-13.4,12-19.8
		c8.6-12.7,18.4-24.6,29.3-35.5c43.4-43.4,103.3-70.2,169.4-70.2s126.1,26.8,169.4,70.2c10.8,10.8,20.6,22.7,29.3,35.5
		c4.3,6.4,8.3,13,12,19.8c1.8,3.4,3.6,6.8,5.3,10.3h-3.1V368.5z"/>
	<path class="st2" d="M493.3,368.5v91.6h4c-11.9,28.2-29.1,53.5-50.4,74.8c-42.6,42.6-101.4,68.9-166.4,68.9s-123.8-26.3-166.4-68.9
		c-21.3-21.3-38.5-46.6-50.4-74.8h4.2V276.9h-4.2c11.9-28.2,29.1-53.5,50.4-74.8c42.6-42.6,101.4-68.9,166.4-68.9
		s123.8,26.3,166.4,68.9c21.3,21.3,38.5,46.6,50.4,74.8h-4V368.5z"/>
	<path class="st2" d="M493.3,368.5v89.9h0.1c-11.7,27.6-28.6,52.5-49.5,73.4c-41.8,41.8-99.6,67.7-163.4,67.7
		s-121.6-25.9-163.4-67.7c-20.9-20.9-37.8-45.8-49.5-73.4h0.2V278.6h-0.2c11.7-27.6,28.6-52.5,49.5-73.4
		c41.8-41.8,99.6-67.7,163.4-67.7s121.6,25.9,163.4,67.7c20.9,20.9,37.8,45.8,49.5,73.4h-0.1V368.5z"/>
	<circle class="st2" cx="280.5" cy="368.5" r="211.1"/>
	<circle class="st2" cx="280.5" cy="368.5" r="191.1"/>
	<circle class="st2" cx="280.5" cy="368.5" r="166.9"/>
	<circle class="st2" cx="280.5" cy="368.5" r="142.6"/>
	<circle class="st2" cx="280.5" cy="368.5" r="122.7"/>
	<circle class="st2" cx="280.5" cy="368.5" r="102.7"/>
	<circle class="st2" cx="280.5" cy="368.5" r="81.3"/>
	<circle class="st2" cx="280.5" cy="368.5" r="59.9"/>
	<circle class="st2" cx="280.5" cy="368.5" r="59"/>
	<circle class="st2" cx="280.5" cy="368.5" r="58.1"/>
	<circle class="st2" cx="280.5" cy="368.5" r="57.2"/>
	<circle class="st2" cx="280.5" cy="368.5" r="56.2"/>
	<circle class="st2" cx="280.5" cy="368.5" r="55.3"/>
	<circle class="st2" cx="280.5" cy="368.5" r="54.4"/>
	<circle class="st2" cx="280.5" cy="368.5" r="53.5"/>
	<circle class="st2" cx="280.5" cy="368.5" r="52.6"/>
	<circle class="st2" cx="280.5" cy="368.5" r="51.7"/>
	<circle class="st2" cx="280.5" cy="368.5" r="50.8"/>
	<circle class="st2" cx="280.5" cy="368.5" r="49.9"/>
	<circle class="st2" cx="280.5" cy="368.5" r="48.9"/>
	<circle class="st2" cx="280.5" cy="368.5" r="48"/>
	<circle class="st2" cx="280.5" cy="368.5" r="47.1"/>
	<circle class="st2" cx="280.5" cy="368.5" r="46.2"/>
	<circle class="st2" cx="280.5" cy="368.5" r="45.3"/>
	<circle class="st2" cx="280.5" cy="368.5" r="44.4"/>
	<circle class="st2" cx="280.5" cy="368.5" r="43.5"/>
	<circle class="st2" cx="280.5" cy="368.5" r="42.6"/>
	<circle class="st2" cx="280.5" cy="368.5" r="41.6"/>
	<circle class="st2" cx="280.5" cy="368.5" r="40.7"/>
	<circle class="st2" cx="280.5" cy="368.5" r="39.8"/>
	<circle class="st2" cx="280.5" cy="368.5" r="38.9"/>
	<circle class="st2" cx="280.5" cy="368.5" r="38"/>
	<circle class="st2" cx="280.5" cy="368.5" r="37.1"/>
	<circle class="st2" cx="280.5" cy="368.5" r="36.2"/>
	<circle class="st2" cx="280.5" cy="368.5" r="35.3"/>
	<circle class="st2" cx="280.5" cy="368.5" r="34.3"/>
	<circle class="st2" cx="280.5" cy="368.5" r="33.4"/>
	<circle class="st2" cx="280.5" cy="368.5" r="32.5"/>
	<circle class="st2" cx="280.5" cy="368.5" r="31.6"/>
	<circle class="st2" cx="280.5" cy="368.5" r="30.7"/>
	<circle class="st2" cx="280.5" cy="368.5" r="29.8"/>
	<circle class="st2" cx="280.5" cy="368.5" r="28.9"/>
	<circle class="st2" cx="280.5" cy="368.5" r="28"/>
	<circle class="st2" cx="280.5" cy="368.5" r="27"/>
	<circle class="st2" cx="280.5" cy="368.5" r="26.1"/>
	<circle class="st2" cx="280.5" cy="368.5" r="25.2"/>
	<circle class="st2" cx="280.5" cy="368.5" r="24.3"/>
	<circle class="st2" cx="280.5" cy="368.5" r="23.4"/>
	<circle class="st2" cx="280.5" cy="368.5" r="22.5"/>
	<circle class="st2" cx="280.5" cy="368.5" r="21.6"/>
	<circle class="st2" cx="280.5" cy="368.5" r="20.7"/>
	<circle class="st2" cx="280.5" cy="368.5" r="19.7"/>
	<circle class="st2" cx="280.5" cy="368.5" r="18.8"/>
	<circle class="st2" cx="280.5" cy="368.5" r="17.9"/>
	<circle class="st2" cx="280.5" cy="368.5" r="17"/>
	<circle class="st2" cx="280.5" cy="368.5" r="16.1"/>
	<circle class="st2" cx="280.5" cy="368.5" r="15.2"/>
	<circle class="st2" cx="280.5" cy="368.5" r="14.3"/>
	<circle class="st2" cx="280.5" cy="368.5" r="12.2"/>
	<circle class="st2" cx="280.5" cy="368.5" r="10.2"/>
	<circle class="st2" cx="280.5" cy="368.5" r="8.1"/>
	<circle class="st2" cx="280.5" cy="368.5" r="6.1"/>
	<circle class="st2" cx="280.5" cy="368.5" r="4.1"/>
	<circle class="st2" cx="280.5" cy="368.5" r="2"/>
</g>
<g id="Detailles_ailles">
	<g id="Detailles_dans_les_ailles">
		<path class="st3" d="M76.2,304.8c0,0,40,16,62,18.2"/>
		
			<linearGradient id="SVGID_4_" gradientUnits="userSpaceOnUse" x1="75.7511" y1="-126.9781" x2="138.1511" y2="-129.1681" gradientTransform="matrix(1 0 0 1 0 442)">
			<stop  offset="0" style="stop-color:#FFFFFF"/>
			<stop  offset="1" style="stop-color:#000000"/>
		</linearGradient>
		<path class="st4" d="M76.3,304.6c0,0,3.8,1.3,9.6,3.1l9.9,3c3.6,1.1,7.5,2.2,11.4,3.3c1.9,0.5,3.9,1,5.8,1.5s3.8,0.9,5.7,1.4
			s3.6,1,5.2,1.5c0.8,0.3,1.6,0.5,2.4,0.7l2.3,0.7l3.9,1.2c1.2,0.4,2.2,0.7,3.1,0.9c1.7,0.5,2.7,0.9,2.7,0.9v0.4c0,0-1,0.1-2.8,0.1
			H134l-1.8-0.1c-0.6,0-1.3-0.1-2-0.1s-1.4-0.1-2.2-0.2c-1.5-0.2-3.2-0.4-4.9-0.8s-3.6-0.7-5.4-1.2s-3.7-1.1-5.6-1.8s-3.8-1.3-5.7-2
			c-3.8-1.3-7.7-2.7-11.2-4.1s-6.8-2.7-9.6-3.9c-5.6-2.4-9.3-4.1-9.3-4.1V304.6z"/>
		<path class="st3" d="M83.7,329.5c0,0,48,11.8,74.1,11.7"/>
		
			<linearGradient id="SVGID_5_" gradientUnits="userSpaceOnUse" x1="84.2475" y1="-102.1475" x2="156.8475" y2="-110.7975" gradientTransform="matrix(1 0 0 1 0 442)">
			<stop  offset="0" style="stop-color:#FFFFFF"/>
			<stop  offset="1" style="stop-color:#000000"/>
		</linearGradient>
		<path class="st5" d="M83.8,329.4l11.6,2.1l11.8,2c4.3,0.7,9,1.5,13.6,2.1c2.3,0.3,4.6,0.6,6.9,0.9c2.3,0.3,4.5,0.5,6.7,0.8
			s4.3,0.6,6.2,0.9c1,0.2,2,0.3,2.9,0.4l2.7,0.5l4.7,0.8c1.4,0.3,2.6,0.5,3.6,0.6c2,0.3,3.2,0.6,3.2,0.6v0.4c0,0-1.2,0.2-3.3,0.5
			l-1.7,0.2c-0.6,0-1.3,0.1-2,0.1s-1.5,0-2.3,0.1s-1.7,0-2.6,0c-1.8,0-3.7-0.1-5.7-0.2s-4.2-0.3-6.4-0.6s-4.4-0.7-6.7-1.2
			s-4.6-0.9-6.9-1.4c-4.6-0.9-9.2-2-13.5-3s-8.3-2-11.7-2.9c-6.8-1.8-11.3-3.1-11.3-3.1L83.8,329.4z"/>
		<path class="st3" d="M89.5,346.9c0,0,50.3,9.8,77.4,8.6"/>
		
			<linearGradient id="SVGID_6_" gradientUnits="userSpaceOnUse" x1="90.227" y1="-84.8192" x2="165.577" y2="-96.5093" gradientTransform="matrix(1 0 0 1 0 442)">
			<stop  offset="0" style="stop-color:#FFFFFF"/>
			<stop  offset="1" style="stop-color:#000000"/>
		</linearGradient>
		<path class="st6" d="M89.5,346.6l12.1,1.5l12.4,1.4c4.5,0.5,9.4,1,14.2,1.4c2.4,0.2,4.8,0.4,7.2,0.5s4.7,0.2,7,0.5
			s4.4,0.4,6.5,0.7l3,0.4l2.8,0.4c1.8,0.3,3.4,0.5,4.9,0.7s2.8,0.4,3.8,0.6c2.1,0.3,3.4,0.6,3.4,0.6v0.5c0,0-1.2,0.3-3.4,0.7
			l-1.8,0.3c-0.6,0.1-1.4,0.2-2.1,0.3s-1.6,0.1-2.4,0.2s-1.7,0.2-2.7,0.2c-1.9,0-3.9,0.1-6,0.1s-4.3-0.1-6.6-0.4s-4.6-0.5-7-1
			l-7.2-1.2c-4.8-0.8-9.7-1.6-14.2-2.5s-8.7-1.8-12.3-2.5c-7.2-1.6-11.9-2.8-11.9-2.8L89.5,346.6z"/>
		<path class="st3" d="M97.4,369.8c0,0,55.5,8.3,85.3,6.2"/>
		
			<linearGradient id="SVGID_7_" gradientUnits="userSpaceOnUse" x1="98.3343" y1="-61.9437" x2="181.2043" y2="-75.9937" gradientTransform="matrix(1 0 0 1 0 442)">
			<stop  offset="0" style="stop-color:#FFFFFF"/>
			<stop  offset="1" style="stop-color:#000000"/>
		</linearGradient>
		<path class="st7" d="M97.4,369.5l13.3,1.1l13.7,1c5,0.3,10.3,0.7,15.7,1c2.7,0.1,5.3,0.2,8,0.3s5.2,0.1,7.7,0.2s4.9,0.3,7.2,0.5
			c1.1,0.1,2.2,0.2,3.3,0.3l3.1,0.3c2,0.2,3.8,0.3,5.4,0.5s3,0.3,4.2,0.5c2.3,0.3,3.7,0.5,3.7,0.5v0.5c0,0-1.3,0.4-3.6,0.8l-1.9,0.4
			c-0.7,0.1-1.5,0.2-2.3,0.3s-1.7,0.2-2.6,0.3s-1.9,0.2-2.9,0.3c-2,0.1-4.2,0.3-6.5,0.3s-4.8,0-7.3-0.1s-5.1-0.4-7.7-0.8l-8-1
			c-5.3-0.6-10.7-1.3-15.6-2.1s-9.6-1.5-13.6-2.2s-7.3-1.3-9.6-1.7l-3.6-0.7L97.4,369.5z"/>
		<path class="st3" d="M136.3,417.7c0,0,58.9-2,89.8-9.2"/>
		
			<linearGradient id="SVGID_8_" gradientUnits="userSpaceOnUse" x1="138.8772" y1="-14.8287" x2="223.2372" y2="-42.8386" gradientTransform="matrix(1 0 0 1 0 442)">
			<stop  offset="0" style="stop-color:#FFFFFF"/>
			<stop  offset="1" style="stop-color:#000000"/>
		</linearGradient>
		<path class="st8" d="M136.3,417.5l14.1-1.2l14.4-1.3c5.3-0.5,10.9-1.1,16.5-1.8c2.8-0.3,5.6-0.7,8.3-1.1s5.4-0.8,8.1-1.1
			s5.1-0.6,7.6-0.8c1.2-0.1,2.4-0.3,3.5-0.4l3.3-0.3l10.2-1c2.5-0.2,3.9-0.3,3.9-0.3l0.1,0.4c0,0-1.3,0.5-3.7,1.3l-2,0.6
			c-0.7,0.2-1.5,0.4-2.3,0.7s-1.7,0.5-2.7,0.7s-1.9,0.5-3,0.7c-2.1,0.5-4.4,0.9-6.8,1.3s-4.9,0.8-7.6,1.1s-5.4,0.5-8.2,0.7l-8.4,0.5
			c-5.6,0.4-11.3,0.6-16.6,0.9s-10.3,0.4-14.5,0.5c-8.5,0.2-14.1,0.1-14.1,0.1L136.3,417.5z"/>
		<path class="st3" d="M117.6,402.6c0,0,54.7-2.4,83.3-9.4"/>
		
			<linearGradient id="SVGID_9_" gradientUnits="userSpaceOnUse" x1="120.0569" y1="-30.57" x2="198.1869" y2="-57.41" gradientTransform="matrix(1 0 0 1 0 442)">
			<stop  offset="0" style="stop-color:#FFFFFF"/>
			<stop  offset="1" style="stop-color:#000000"/>
		</linearGradient>
		<path class="st9" d="M117.6,402.4l13.1-1.3l13.3-1.4c4.9-0.5,10.1-1.1,15.3-1.8c2.6-0.3,5.2-0.7,7.7-1.1s5-0.8,7.5-1.1
			s4.8-0.6,7-0.8c1.1-0.1,2.2-0.3,3.3-0.4l3-0.3l5.3-0.5c1.6-0.1,3-0.3,4.1-0.4c2.3-0.2,3.6-0.3,3.6-0.3l0.1,0.4
			c0,0-1.2,0.5-3.4,1.3l-1.8,0.6c-0.7,0.2-1.4,0.4-2.2,0.6s-1.6,0.5-2.5,0.7s-1.8,0.5-2.8,0.7c-1.9,0.5-4,0.9-6.3,1.3
			s-4.6,0.8-7,1.1s-5,0.5-7.6,0.7l-7.8,0.6c-5.3,0.4-10.5,0.7-15.4,1s-9.5,0.4-13.5,0.5c-7.9,0.2-13.1,0.2-13.1,0.2L117.6,402.4z"/>
		<path class="st3" d="M166.8,433c0,0,49.5,1.4,74.9-4.2"/>
		
			<linearGradient id="SVGID_10_" gradientUnits="userSpaceOnUse" x1="169.6432" y1="0.8083" x2="238.5532" y2="-22.9016" gradientTransform="matrix(1 0 0 1 0 442)">
			<stop  offset="0" style="stop-color:#FFFFFF"/>
			<stop  offset="1" style="stop-color:#000000"/>
		</linearGradient>
		<path class="st10" d="M166.8,432.8c0,0,4.7,0,11.7-0.2l12-0.4c4.4-0.2,9.1-0.4,13.8-0.7c2.3-0.1,4.7-0.3,7-0.5l6.7-0.6
			c2.2-0.1,4.3-0.4,6.3-0.4c1,0,2-0.1,2.9-0.2l2.7-0.2c1.8-0.1,3.4-0.3,4.8-0.4s2.7-0.2,3.7-0.3c2-0.2,3.2-0.2,3.2-0.2l0.1,0.3
			c0,0-1.1,0.4-3.1,1l-1.6,0.5c-0.6,0.2-1.3,0.3-2,0.5c-1.4,0.3-3,0.7-4.7,1s-3.6,0.6-5.7,0.9s-4.1,0.5-6.4,0.7s-4.5,0.3-6.8,0.3
			s-4.7,0.1-7,0.1c-4.7,0.1-9.4,0.1-13.8,0s-8.5-0.1-12-0.3c-7-0.2-11.7-0.5-11.7-0.5L166.8,432.8z"/>
		<path class="st3" d="M195.1,443.1c0,0,35.7,2.4,53.7-1.5"/>
		
			<linearGradient id="SVGID_11_" gradientUnits="userSpaceOnUse" x1="197.4896" y1="9.2988" x2="246.1596" y2="-8.4312" gradientTransform="matrix(1 0 0 1 0 442)">
			<stop  offset="0" style="stop-color:#FFFFFF"/>
			<stop  offset="1" style="stop-color:#000000"/>
		</linearGradient>
		<path class="st11" d="M195.2,443c0,0,3.4,0,8.4,0l8.6-0.1c3.1,0,6.5-0.1,9.9-0.3c1.7-0.1,3.4-0.2,5-0.3s3.3-0.3,4.8-0.4
			s3.1-0.2,4.5-0.2c0.7,0,1.4,0,2.1-0.1h2c1.3,0,2.4-0.1,3.4-0.1s1.9,0,2.6-0.1c1.5-0.1,2.3,0,2.3,0l0.1,0.3c0,0-0.8,0.3-2.2,0.8
			l-1.2,0.4l-1.4,0.4c-1,0.2-2.1,0.6-3.4,0.8s-2.6,0.5-4.1,0.6s-3,0.3-4.6,0.4s-3.2,0.1-4.9,0s-3.4,0-5.1-0.1
			c-3.4-0.1-6.8-0.2-9.9-0.4s-6.1-0.4-8.6-0.6c-5-0.4-8.4-0.8-8.4-0.8L195.2,443z"/>
	</g>
</g>
<path class="st12" d="M360.8,196.3c-2.6-2.6-7.5-2.2-11.6,0.9c1.8-0.4,3.4-0.1,4.5,1c2,2,1.3,6-1.6,8.9c-2.8,2.8-6.6,3.5-8.7,1.8
	c0.2,1.2,0.7,2.3,1.6,3.2c3,3,9,2,13.4-2.4S363.9,199.3,360.8,196.3z"/>
<text transform="matrix(0.7229 0 0 1 32.998 608.083)" class="st13 st14 st15">COLIBRI </text>
<text transform="matrix(0.7024 0 0 1 296 680.5771)" class="st13 st14 st16 st17">GAMES</text>
</svg>
